<svg width="64" height="64" viewBox="0 0 64 64" fill="none" xmlns="http://www.w3.org/2000/svg">
  <rect x="2" y="2" width="60" height="60" rx="14" fill="#E60023"/>
  <path d="M33.9 15.5c-9.2 0-15.3 6.5-15.3 14.6 0 5.6 3.2 10.6 8.3 12.5.9.3 1.4.1 1.6-.7.1-.5.9-3.5 1.1-4.5.1-.5.1-.8-.3-1.3-1-1.2-1.8-3.4-1.8-5.5 0-5.3 4-10.1 10.8-10.1 5.9 0 10 3.9 10 9.5 0 6.3-3.2 10.7-7.3 10.7-2.3 0-4-1.9-3.4-4.2.7-2.8 2-5.8 2-7.9 0-1.8-1-3.3-3-3.3-2.4 0-4.3 2.5-4.3 5.8 0 2.1.7 3.5.7 3.5l-2.8 11.7c-.5 2.2-.1 5.1 0 6.7.1.6.8.8 1.2.3 1.3-1.8 3-4.8 3.6-7 .2-.8 1-3.8 1-3.8.9 1.8 3.4 3.2 6 3.2 7.9 0 13.6-7.3 13.6-16.4 0-8.7-7.1-15.3-16.4-15.3z" fill="white"/>
</svg>
